# xmcd
#
# Track frame offsets:
#	150
#	11495
#	25800
#	37745
#	49017
#	60160
#	72800
#	86442
#	103442
#
# Disc length: 1536 seconds
#
# Revision: 1
# Processed by: cddbd v1.5.2PL0 Copyright (c) Steve Scherf et al.
# Submitted via: audiograbber 1.83.01
#
DISCID=6305fe09
DTITLE=Conway Twitty - Conway Twitty - Inducted Into The Hall of Fame 1999
DYEAR=1999
DGENRE=Country
TTITLE0=Hello Darlin'
TTITLE1=You've Never Been This Far Before
TTITLE2=Linda On My Mind
TTITLE3=It's Only Make Believe
TTITLE4=As Soon As I Hang Up The Phone
TTITLE5=This Time I've Hurt Her More Than She Loves Me
TTITLE6=Games That Daddies Play
TTITLE7=Don't Cry Joni
TTITLE8=I Can't See Me Without You
EXTD=
EXTT0=
EXTT1=
EXTT2=
EXTT3=
EXTT4=
EXTT5=
EXTT6=
EXTT7=
EXTT8=
PLAYORDER=
